# xmcd
#
# Track frame offsets: 
#        150
#        26726
#        45358
#        55905
#        66315
#        79601
#        92513
#        105383
#        118206
#        160115
#        184555
#        211012
#        248027
#        291089
#        320284
#
# Disc length: 4503 seconds
#
# Revision: 2
# Processed by: cddbd v1.5.2PL0 Copyright (c) Steve Scherf et al.
# Submitted via: ExactAudioCopy v0.90b4
#
DISCID=be11950f
DTITLE=Ray Charles - The Genius At His Best [CD6] - Swanee River Ro
DTITLE=ck
DYEAR=2011
DGENRE=Blues
TTITLE0=Doodlin'
TTITLE1=Sweet Sixteen Bars
TTITLE2=Get On The Right Track Baby
TTITLE3=Swannee River Rock (Talkin' 'bout That River)
TTITLE4=I Want A Litte Girl
TTITLE5=Ain't That Love
TTITLE6=What Kind Of Man Are You
TTITLE7=Talkin' 'bout You
TTITLE8=How Long Blues
TTITLE9=Cosmic Ray
TTITLE10=Deed I Do
TTITLE11=Blue Funk
TTITLE12=Soul Brothers
TTITLE13=Bag's Guitar Blues
TTITLE14=Rackhouse (Part I and II)
EXTD=
EXTT0=
EXTT1=
EXTT2=
EXTT3=
EXTT4=
EXTT5=
EXTT6=
EXTT7=
EXTT8=
EXTT9=
EXTT10=
EXTT11=
EXTT12=
EXTT13=
EXTT14=
PLAYORDER=
